<?xml version="1.0" encoding="UTF-8"?><svg id="uuid-2cdd0b55-aed6-4c97-a94c-56ace90a6498" xmlns="http://www.w3.org/2000/svg" viewBox="0 0 402.95 400"><defs><style>.uuid-f3681008-85da-4615-967a-6ca93bdf893b{stroke-width:11.97px;}.uuid-f3681008-85da-4615-967a-6ca93bdf893b,.uuid-5cea56c5-da20-4b80-b7df-582dc0fd9950{fill:none;stroke:#fff;stroke-miterlimit:10;}.uuid-5cea56c5-da20-4b80-b7df-582dc0fd9950{stroke-width:8.98px;}.uuid-cb5cff44-7b1c-40e9-94d8-108429011644{fill:#fff;}</style></defs><g><path class="uuid-cb5cff44-7b1c-40e9-94d8-108429011644" d="M268.21,145.2l-.37-1.31c-.05-.15-.06-.3-.12-.44l-.03-.11c-.14-.33-.38-.64-.62-.95-.04-.06-.06-.12-.11-.17-.7-.81-1.69-1.54-2.95-2.18-.03-.02-.08-.03-.11-.05-.57-.29-1.17-.58-1.84-.83-.3-.12-.63-.22-.94-.33-.42-.15-.83-.3-1.28-.44-.49-.15-1.02-.29-1.55-.43-.28-.08-.58-.17-.88-.24-.66-.16-1.35-.31-2.04-.46-.19-.04-.36-.08-.54-.12-.8-.15-1.62-.31-2.45-.45-.09,0-.19-.03-.28-.04-.9-.15-1.83-.29-2.77-.41-.02,0-.03,0-.06,0-3.9-.52-7.97-.84-11.85-1.01-.05,0-.1,0-.14,0-.89-.04-1.77-.07-2.63-.09-.26-.01-.51-.01-.77-.02-.65-.02-1.3-.03-1.93-.04-.9-.01-1.77-.02-2.6,0-10.26,.06-19.87,1.05-26.91,2.73l-.18-30.6c-.05-9.11-13.28-16.16-30.12-16.06-16.83,.1-29.98,7.3-29.92,16.41l.58,101.1c.07,11.68,12.53,21.17,28.15,21.85l.16,26.99c-18.49,.67-32.66,9.03-32.6,19.52,.06,10.86,15.36,19.29,34.83,19.18,15.5-.09,28.27-5.57,32.81-13.28,4.17,5.12,13.28,8.56,24.12,8.51,14.84-.09,26.44-6.73,26.39-15.11-.04-8-10.69-14.28-24.58-14.75l-.21-36.36c14.33-.55,25.13-5.46,32.05-14.74,15.87-21.28,6.37-58.09,4.29-65.26m-38.83-6.13c1.32-.01,2.61,0,3.86,.02,.42,0,.81,.03,1.22,.04,.84,.01,1.66,.04,2.46,.06,.38,.02,.74,.04,1.1,.06,.83,.05,1.65,.08,2.43,.13,.21,.01,.4,.03,.61,.04,14,.97,22.04,3.7,22.9,5.39l.06,.2c-.75,2.16-13.09,6.16-34.58,6.29-10.43,.06-20.13-.85-26.94-2.53l-.04-6.87c6.79-1.75,16.48-2.78,26.91-2.83m-23.3,131.29c-4.4-7.34-16.36-12.53-30.97-12.9l-.16-27c11.87-.65,21.84-6.37,25.91-14.21,6.78,5.66,15.85,8.68,27.01,8.98l.21,36.35c-9.97,.45-18.15,3.91-22,8.78m-33.91-175.23c14.11-.08,26.06,5.45,26.09,12.09,.04,6.63-11.85,12.3-25.95,12.38-14.11,.08-26.06-5.45-26.09-12.09-.04-6.64,11.84-12.3,25.95-12.38m-25.37,113.49l-.53-92.9c.1,.09,.24,.18,.35,.28,.45,.4,.95,.79,1.46,1.17,.19,.14,.39,.29,.59,.43,.69,.47,1.42,.93,2.21,1.35,.03,.02,.05,.03,.07,.04,.83,.44,1.7,.83,2.61,1.22,.26,.11,.52,.2,.77,.3,.7,.28,1.43,.54,2.18,.78,.28,.08,.56,.18,.86,.26,.99,.3,2,.58,3.05,.82,.03,0,.07,.01,.09,.02,1.08,.24,2.21,.43,3.35,.6,.34,.05,.68,.09,1.02,.13,.87,.11,1.74,.2,2.64,.27,.36,.02,.71,.06,1.08,.08,1.23,.07,2.46,.11,3.72,.11,1.27,0,2.5-.07,3.73-.15,.37-.03,.71-.06,1.08-.09,.89-.08,1.77-.19,2.63-.31,.34-.04,.68-.09,1.02-.14,1.15-.19,2.27-.39,3.35-.64,.04,0,.06-.02,.09-.02,1.05-.25,2.06-.54,3.04-.84,.29-.1,.58-.19,.87-.29,.74-.25,1.46-.52,2.16-.8,.25-.1,.51-.2,.77-.32,.9-.39,1.77-.81,2.59-1.25,.03-.01,.05-.02,.07-.04,.78-.44,1.5-.89,2.19-1.38,.2-.14,.4-.29,.59-.43,.51-.39,1-.78,1.45-1.19,.11-.1,.24-.19,.34-.29l.14,23.45h0s.07,12.95,.07,12.95l.33,56.49c0,1.29-.2,2.6-.64,3.97l-.11,.33c-2.73,7.91-12.95,13.86-25.17,13.93-14.35,.08-26.07-7.96-26.13-17.92m26.51,83.55c-16.65,.09-30.76-6.87-30.81-15.21-.04-7.99,12.88-14.86,28.63-15.49l.09,15.33,4-.02-.09-15.33c15.14,.43,27.7,6.65,28.71,14.23-.04,.31-.15,.6-.15,.92,0,.44,.06,.87,.12,1.3-1.32,7.78-14.72,14.18-30.51,14.27m79.34-15.85c.04,5.94-10.22,11.01-22.42,11.09-11.61,.07-21.41-4.44-22.36-10.01,.02-.27,.07-.54,.07-.8,0-.29-.06-.58-.08-.87,.86-5.23,9.56-9.56,20.25-10.11l.06,10.86,4-.02-.06-10.86c11.28,.45,20.51,5.12,20.54,10.73m8.06-68.27c-6.46,8.66-16.84,13.12-30.85,13.24-11.73,.04-20.98-2.99-27.5-9.01,.16-.66,.28-1.32,.36-2,.08-.66,.12-1.34,.12-2l-.32-55.42c7.06,1.6,16.68,2.47,26.94,2.42,11.35-.06,28.86-1.5,35.69-6.05,2.54,10.12,8.77,41.09-4.45,58.82"/><path class="uuid-cb5cff44-7b1c-40e9-94d8-108429011644" d="M268.19,141.75c-2.1-7.54-13.59-8.31-20.12-9.11-15.03-1.84-30.86-1.61-45.65,1.71,.01,1.15,.03,2.3,.05,3.45l-.12-21.86c-.03-5.08,1.08-12.55-1.51-17.13-6.92-12.26-28.34-12.49-39.99-9.91-10.44,2.31-18.71,7.46-18.67,18.66,.09,30.2,.35,60.4,.53,90.59,.03,4.31-.08,8.65,.08,12.96,.56,14.88,14.84,21.93,28.18,22.85-.01-1.15-.04-2.3-.05-3.45l.15,27c0-1.15,.02-2.3,.02-3.46-12.95,.7-32.43,5.16-32.63,21.23-.04,4.47-.11,8.69,2.6,12.51,4.47,6.34,12.91,9.32,20.18,10.76,10.07,1.98,21.08,1.51,30.78-1.97,3.91-1.4,7.76-3.35,10.82-6.19,.69-.64,2.18-3.15,2.93-3.41,.98-.34,2.92,1.91,4.41,2.89,7.88,5.21,18.85,5.91,27.91,4.32,6.94-1.22,16.6-4.62,18.36-12.46,.73-3.25,.76-8.25-.22-11.46-2.84-9.37-15.97-11.68-24.17-12.16,.02,1.16,.04,2.3,.06,3.46l-.21-36.36c0,1.16-.01,2.3-.02,3.46,12.01-.66,23.78-4.26,31.48-14.03,6.84-8.67,9.16-19.96,9.53-30.77,.48-14.2-.81-28.43-4.71-42.12,.6,2.12-.57,4.76,.04,6.91,3.93,13.79,6.25,28.74,2.72,42.83-4.85,19.3-19.77,29.19-39.1,30.25-.06,0,0,3.42-.01,3.45l.21,36.35c0,.2-.01,3.45,.05,3.45,8.9,.52,17.24,2.66,23.05,9.73,.48,.76,.86,1.57,1.12,2.43,.2-2.14,.04-2.3-.45-.5-.91,.82-1.45,2.48-2.36,3.45-2.75,2.94-6.61,4.74-10.4,5.95-9.12,2.9-20.27,2.73-29.11-1.1-2.04-.89-4.05-1.99-5.76-3.44-2.08-1.77-1.14-1.96-2.86-.89-1.55,.95-2.86,3.21-4.41,4.37-1.67,1.25-3.48,2.26-5.36,3.15-14.94,7.07-41.11,7.6-53.2-5.67-1.12-1.23-1.77-2.64-2.74-3.95-.37-.79-.65-1.61-.85-2.45-.14,1.97-.08,2.35,.2,1.15,1.22-3.22,2.89-5.67,5.57-7.9,7.27-6.07,17.41-7.92,26.59-8.41,.05,0,0-3.43,.01-3.46l-.16-27c0-.2,.03-3.44-.05-3.45-11.46-.79-25.09-6.22-27.83-18.71-.24-1.1-.3-5.78-.3-8.08l-.28-47.65-.24-41.71c0-.96-.27-2.31-.02-3.24-.57,2.13,1.03-1.21,1.32-1.61,1.9-2.58,3.74-4.52,6.54-6.19,11.36-6.8,27.97-6.98,40.07-2.19,4.74,1.87,10.61,6.09,11.89,10.04-.21-.66,.14,1.36,.17,2.03,.07,1.86,.02,3.75,.03,5.61l.13,22.46c0,.21,.13,3.44,.06,3.45,14.79-3.32,30.63-3.55,45.65-1.7,6.54,.8,18.02,1.56,20.12,9.11-.59-2.13,.56-4.77-.04-6.91"/><path class="uuid-cb5cff44-7b1c-40e9-94d8-108429011644" d="M229.4,142.52c7.7,0,15.44,.34,23.03,1.7,2.18,.38,10.82,1.27,11.62,4.24l-.04-6.91c-2.66,4.8-15.76,5.1-20.21,5.56-13.61,1.4-27.93,1.26-41.31-1.8,.02,1.15,.04,2.3,.05,3.45l-.03-6.86c0,1.15-.01,2.3-.02,3.45,8.82-2.12,17.87-2.71,26.92-2.84,.07,0,0-6.91-.04-6.91-9.04,.13-18.1,.73-26.91,2.85-.15,.03-.01,3.39-.01,3.45l.04,6.87c0,.23-.1,3.42,.05,3.45,13.38,3.06,27.71,3.2,41.31,1.8,4.14-.43,17.87-.79,20.21-5.56,1.49-3.02,.22-7.36-2.52-8.72-9.23-4.59-22.11-4.13-32.17-4.13-.03,0-.03,6.92,.04,6.91"/><path class="uuid-cb5cff44-7b1c-40e9-94d8-108429011644" d="M206.06,266.91c-6.61-9.87-19.94-12.41-30.98-12.89,.02,1.15,.04,2.3,.06,3.45l-.16-27c0,1.15-.01,2.3-.01,3.45,5.54-.46,10.98-1.66,15.88-4.41,3.84-2.16,5.87-5.99,9.2-8.36,.43-1.86,1.21-1.95,2.32-.27,1.02,.75,2.08,1.46,3.18,2.1,1.69,.99,3.48,1.83,5.29,2.54,5.46,2.13,11.23,2.9,17.05,3.16-.02-1.16-.04-2.3-.05-3.46l.21,36.34c.01-1.14,0-2.29,.01-3.45-8.03,.56-16.48,2.5-22,8.79-1.16,1.32,1.16,5.64,.04,6.91,5.51-6.3,13.97-8.23,22-8.79,.07,0,.02-3.42,.02-3.46l-.22-36.34c0-.2,.01-3.45-.05-3.45-5.81-.26-11.6-1.02-17.05-3.16-1.82-.72-3.6-1.56-5.29-2.55-1.1-.64-2.16-1.34-3.18-2.1-1.11-1.68-1.89-1.59-2.32,.28-3.37,2.41-5.29,6.16-9.2,8.35-4.91,2.74-10.32,3.96-15.88,4.41-.08,0-.02,3.42-.02,3.46l.16,27c0,.2-.01,3.45,.05,3.45,11.05,.48,24.37,3.03,30.98,12.9-1.05-1.58,1.04-5.3-.04-6.91"/><path class="uuid-cb5cff44-7b1c-40e9-94d8-108429011644" d="M172.19,98.59c7.87,.14,24.93,1.59,26.09,12.08l-.04-6.91c-1.02,10.34-18.15,12.34-25.95,12.38-7.83,.04-24.95-1.74-26.09-12.08l.04,6.91c1.04-10.49,18.1-12.15,25.95-12.38,.1,0-.04-6.91-.04-6.91-10.74,.32-26.04,2.71-25.96,15.84,.02,3.89,.25,6.66,3.52,9.39,5.95,4.98,15.17,6.18,22.62,6.16,7.28-.03,16.02-1.34,21.96-5.93,3.63-2.8,4.03-5.73,4.01-9.92-.08-13.14-15.4-15.34-26.15-15.54,0,0-.06,6.92,.04,6.91"/><path class="uuid-cb5cff44-7b1c-40e9-94d8-108429011644" d="M146.84,208.63l-.54-92.89c0,1.15,0,2.3-.01,3.45,13.79,11.07,38.38,10.92,52.05-.31-.01-1.15-.04-2.3-.06-3.45l.54,92.89c0-1.14,.01-2.3,.01-3.45-1.9,24.19-50.39,24.81-52.04,.43,.11,1.63-.12,4.58,.02,6.66,1.33,19.81,30.93,21.62,43.89,13.05,8.73-5.78,8.2-14.01,8.14-23.09l-.34-58.46-.16-28.02c0-.39-.34-3.21-.05-3.45-13.67,11.22-38.26,11.37-52.05,.31,.26,.21-.01,3.22-.01,3.45l.53,92.9c.02,3.85,.09,3.98,.07,0"/><path class="uuid-cb5cff44-7b1c-40e9-94d8-108429011644" d="M173.29,288.73c-9.56-.14-29.72-2.43-30.81-15.2l.04,6.91c.91-12.12,19.44-14.94,28.63-15.5-.01-1.15-.04-2.3-.05-3.45l.09,15.33c0,.2,.01,3.45,.05,3.45l4-.02s0-3.42,.01-3.45l-.09-15.32c0,1.15-.01,2.3-.01,3.45,9.39,.47,26.26,2.84,28.7,14.23l-.04-6.91c-.46,2.94-.26,6.16,.02,9.13l-.04-6.91c-2.92,11.77-20.7,14.02-30.51,14.27-.1,0,.03,6.92,.03,6.92,9.41-.25,22.73-1.97,28.74-10.36,2.49-3.48,1.99-8.05,1.6-12.13l.04,6.91c.57-3.55,.67-8.14-1.2-11.3-5.03-8.53-18.63-10.32-27.39-10.75-.02,0-.02,3.43-.02,3.45l.09,15.33c0-1.15,.01-2.3,.02-3.46l-4,.02c.02,1.15,.04,2.3,.05,3.45l-.09-15.32c0-.2-.04-3.45-.05-3.45-8.32,.49-17.82,2.09-24.35,7.72-3.95,3.4-4.34,6.9-4.29,11.68,.12,15.04,18.84,18.02,30.86,18.2,0,0,.05-6.91-.04-6.91"/><path class="uuid-cb5cff44-7b1c-40e9-94d8-108429011644" d="M252.63,272.88c-.95,8.78-14.45,10.82-21.21,11.05-7.4,.24-21.07-1.19-23.57-9.96l.04,6.9c.24-2.82,.21-5.77-.04-8.58l.04,6.91c2.23-7.9,13.41-9.57,20.24-10.11-.01-1.15-.04-2.3-.05-3.45l.06,10.86c0,.21,.01,3.46,.05,3.46l4-.02s.02-3.43,.02-3.46l-.06-10.86c0,1.15-.01,2.3-.02,3.46,6.65,.45,19.5,2.14,20.55,10.74-.28-2.27,.24-4.63-.04-6.91-1.05-8.58-13.92-10.28-20.55-10.74,0,0,0,3.43-.01,3.46l.06,10.86c.01-1.14,.01-2.3,.01-3.45l-4,.02c.01,1.15,.04,2.3,.06,3.45l-.06-10.86c0-.2-.06-3.46-.06-3.46-6.42,.51-18.53,2.2-20.24,10.12-.51,2.32-.1,5.39,.11,7.77l-.04-6.91c-.63,7.83,.8,12.51,8.96,15.57,8.63,3.23,34.33,4.59,35.8-8.92,.24-2.29-.29-4.65-.04-6.91"/><path class="uuid-cb5cff44-7b1c-40e9-94d8-108429011644" d="M260.69,204.61c-13.19,16.64-42.59,17.89-58.35,4.23l.04,6.91c1.73-9.49,.42-20.17,.37-29.74l-.19-33.13c0,1.15-.01,2.3-.01,3.45,11.24,2.38,22.9,2.8,34.36,2.2,5.37-.28,10.75-.77,16.03-1.75,1.28-.24,11.94-4.26,12.24-4.08,1.23,.78,1.69,7.76,1.93,9.15,.82,4.78,1.58,9.72,1.65,14.59,.13,9.85-2.37,20.07-8.07,28.18-1.1,1.56,1.09,5.4,.04,6.91,10.76-15.31,9.43-38.15,6.46-55.86-.36-2.17-.78-4.32-1.25-6.46-.11-.5-.26-2.23-.59-2.55-1-.96-.24-.29-1.94,.1-5.91,1.34-11.27,3.41-17.44,4.12-14.33,1.65-29.31,1.55-43.46-1.46,.06,.01-.02,3.42-.02,3.46,.1,17.49,1.34,35.35,.3,52.81-.11,2.06-.32,3.63-.47,5.68-.44,5.97,3.9,7.92,9.18,10.15,15.96,6.74,38.12,4.01,49.23-10,1.13-1.44-1.13-5.53-.04-6.91"/></g><circle class="uuid-f3681008-85da-4615-967a-6ca93bdf893b" cx="201.47" cy="200" r="186.53"/><circle class="uuid-5cea56c5-da20-4b80-b7df-582dc0fd9950" cx="199.16" cy="200" r="153.8"/></svg>